<svg viewBox="0 0 32.473 32.477">
  <path d="M30,1H4C2.344,1,1,2.343,1,4v26c0,1.657,1.344,3,3,3h26c1.656,0,3-1.343,3-3V4C33,2.343,31.656,1,30,1z M12.219,24.904H8.561V13.561h3.658V24.904z M11.979,11.152c-0.408,0.386-0.947,0.58-1.609,0.58h-0.018 c-0.64,0-1.156-0.194-1.556-0.58c-0.401-0.387-0.603-0.863-0.603-1.433c0-0.584,0.205-1.062,0.609-1.444 c0.411-0.378,0.945-0.567,1.607-0.567c0.651,0,1.172,0.189,1.568,0.567c0.391,0.382,0.594,0.86,0.605,1.444 C12.584,10.288,12.382,10.765,11.979,11.152z M25.756,24.904h-3.658v-6.22c0-0.866-0.181-1.512-0.547-1.931 c-0.367-0.421-0.847-0.631-1.445-0.631c-0.582,0-1.066,0.191-1.451,0.567c-0.389,0.381-0.582,0.923-0.582,1.628v6.586h-3.66v-8.781 l-0.056-2.562h3.594l0.122,1.565c0.857-1.288,1.955-1.932,3.295-1.932c1.312,0,2.375,0.453,3.179,1.353 c0.808,0.9,1.21,2.158,1.21,3.771V24.904z"/>
</svg>
