<svg xmlns="http://www.w3.org/2000/svg" viewBox="0 0 316.28 109.54">
  <title>logo-sydney</title>
  <polygon fill="#fff" points="123.92 24.56 123.92 26.23 122.92 26.23 122.92 22.94 123.92 22.94 123.92 23.52 134.08 23.52 134.08 22.94 135.08 22.94 135.08 26.23 134.08 26.23 134.08 24.56 129.91 24.56 129.91 36.49 132 36.49 132 37.26 126 37.26 126 36.49 128.08 36.49 128.08 24.56 123.92 24.56"
  />
  <polygon fill="#fff" points="139.72 30.77 139.72 36.49 141.28 36.49 141.28 37.26 136.32 37.26 136.32 36.49 137.89 36.49 137.89 24.29 136.32 24.29 136.32 23.52 141.28 23.52 141.28 24.29 139.72 24.29 139.72 29.83 147.52 29.83 147.52 24.29 145.97 24.29 145.97 23.52 150.92 23.52 150.92 24.29 149.34 24.29 149.34 36.49 150.92 36.49 150.92 37.26 145.97 37.26 145.97 36.49 147.52 36.49 147.52 30.77 139.72 30.77"
  />
  <polygon fill="#fff" points="152.66 24.29 152.66 23.52 160.97 23.52 160.97 22.94 161.92 22.94 161.92 26.25 161 26.25 161 24.48 156.06 24.48 156.06 29.81 160 29.81 160 28.25 160.95 28.23 160.95 32.33 160 32.35 160 30.75 156.06 30.75 156.06 36.33 161.19 36.33 161.19 34.49 162.14 34.49 162.14 37.26 152.66 37.26 152.66 36.49 154.23 36.49 154.23 24.29 152.66 24.29"
  />
  <path fill="#fff" d="M224.57,69.52H223v7.93a4.7,4.7,0,0,1-2.52,4.6,6.29,6.29,0,0,1-2.9.7c-3,0-5.24-2-5.24-4.73V69.52h-1.56V68.75h5v0.77h-1.56v7.87c0,2.52,1.48,4.16,3.79,4.16a3.87,3.87,0,0,0,4-4.19V69.52h-1.56V68.75h4.18v0.78h0Z"
    transform="translate(-41.86 -45.23)" />
  <polygon fill="#fff" points="188.49 37.26 184.29 37.26 184.29 36.49 185.86 36.49 185.86 25.08 185.31 24.29 183.86 24.29 183.86 23.52 186.89 23.52 194.51 33.97 194.51 24.29 192.92 24.29 192.92 23.52 197.11 23.52 197.11 24.29 195.55 24.29 195.55 37.49 194.91 37.49 186.91 26.5 186.91 36.49 188.49 36.49 188.49 37.26"
  />
  <polygon fill="#fff" points="198.63 24.29 198.63 23.52 203.59 23.52 203.59 24.29 202.01 24.29 202.01 36.49 203.59 36.49 203.59 37.26 198.63 37.26 198.63 36.49 200.19 36.49 200.19 24.29 198.63 24.29"
  />
  <polygon fill="#fff" points="209.99 23.52 209.99 24.29 208.01 24.29 212.06 34.52 216.06 24.29 214.68 24.29 214.68 23.52 218.25 23.52 218.25 24.29 217.2 24.29 212 37.62 211.29 37.62 206.05 24.29 204.81 24.29 204.81 23.52 209.99 23.52"
  />
  <polygon fill="#fff" points="219.49 24.29 219.49 23.52 227.8 23.52 227.8 22.94 228.75 22.94 228.75 26.25 227.81 26.25 227.81 24.48 222.88 24.48 222.88 29.81 226.81 29.81 226.81 28.25 227.77 28.23 227.77 32.33 226.81 32.35 226.81 30.75 222.88 30.75 222.88 36.33 228 36.33 228 34.49 228.97 34.49 228.97 37.26 219.49 37.26 219.49 36.49 221.05 36.49 221.05 24.29 219.49 24.29"
  />
  <path fill="#fff" d="M284.86,82.49h-1.77a1.9,1.9,0,0,1-2.15-1.23l-3.1-4.94h-1.62v5.39h1.56v0.77h-5V81.72h1.56V69.52h-1.56V68.75h5.79c2,0,3.16.56,3.79,1.85a4.22,4.22,0,0,1,.42,1.85,3.36,3.36,0,0,1-3.12,3.6l3,4.62a1.59,1.59,0,0,0,1.36,1h0.81v0.79h0Zm-8.64-7.12h2a2.66,2.66,0,0,0,2.69-2.88,2.5,2.5,0,0,0-2.73-2.79h-2v5.66h0Z"
    transform="translate(-41.86 -45.23)" />
  <path fill="#fff" d="M287.52,82.68h-1V78.93h1v1.64a4.35,4.35,0,0,0,2.75,1.06c1.67,0,2.79-.88,2.79-2.19s-0.81-2.06-3.06-3.23c-2.63-1.38-3.52-2.42-3.52-4.12,0-2.06,1.75-3.6,4.1-3.6a4.62,4.62,0,0,1,2.47.58V68.33h1v3.56h-1V70.42a3.86,3.86,0,0,0-2.42-.92,2.11,2.11,0,0,0-2.33,2.14c0,1.06.6,1.67,3.21,3.17s3.35,2.41,3.35,4.12a3.92,3.92,0,0,1-4.14,3.83,5.33,5.33,0,0,1-3.21-.94v0.86h0Z"
    transform="translate(-41.86 -45.23)" />
  <polygon fill="#fff" points="254.92 24.29 254.92 23.52 259.88 23.52 259.88 24.29 258.31 24.29 258.31 36.49 259.88 36.49 259.88 37.26 254.92 37.26 254.92 36.49 256.48 36.49 256.48 24.29 254.92 24.29"
  />
  <polygon fill="#fff" points="262.23 24.56 262.23 26.23 261.23 26.23 261.23 22.94 262.23 22.94 262.23 23.52 272.38 23.52 272.38 22.94 273.38 22.94 273.38 26.23 272.38 26.23 272.38 24.56 268.21 24.56 268.21 36.49 270.31 36.49 270.31 37.26 264.31 37.26 264.31 36.49 266.38 36.49 266.38 24.56 262.23 24.56"
  />
  <polygon fill="#fff" points="275.75 24.29 274.55 24.29 274.55 23.52 279.69 23.52 279.69 24.29 277.8 24.29 281.37 29.75 284.69 24.29 282.79 24.29 282.79 23.52 286.95 23.52 286.95 24.29 285.88 24.29 281.88 30.81 281.88 36.49 283.46 36.49 283.46 37.26 278.51 37.26 278.51 36.49 280.06 36.49 280.06 30.93 275.75 24.29"
  />
  <path fill="#fff" d="M334.18,75.64a6.71,6.71,0,1,1,6.72,7.12,7,7,0,0,1-6.72-7.12m2.06,0c0,3.52,2,6.06,4.66,6.06s4.6-2.56,4.6-6.06-1.94-6-4.58-6-4.68,2.5-4.68,6"
    transform="translate(-41.86 -45.23)" />
  <polygon fill="#fff" points="307 24.29 307 23.52 315.31 23.52 315.31 22.94 316.26 22.94 316.26 26.25 315.32 26.25 315.32 24.48 310.38 24.48 310.38 29.81 314.32 29.81 314.32 28.25 315.28 28.23 315.28 32.33 314.32 32.35 314.32 30.75 310.38 30.75 310.38 36.49 311.95 36.49 311.95 37.26 307 37.26 307 36.49 308.55 36.49 308.55 24.29 307 24.29"
  />
  <path fill="#fff" d="M167.37,127h-2.58V117.1h2.58v4.33c3.35,2.25,4.83,2.8,7.24,2.8,4.39,0,7.35-2.3,7.35-5.76,0-3.13-2.14-5.43-8.07-8.51-6.91-3.62-9.27-6.37-9.27-10.89,0-5.43,4.61-9.49,10.81-9.49A12.23,12.23,0,0,1,182,91.12v-2h2.52v9.38H182v-3.9c-2.8-1.86-4.17-2.41-6.37-2.41-3.73,0-6.14,2.25-6.14,5.65,0,2.8,1.59,4.4,8.45,8.37s8.84,6.37,8.84,10.87c0,5.71-4.72,10.1-10.92,10.1a14.07,14.07,0,0,1-8.45-2.47V127h0Z"
    transform="translate(-41.86 -45.23)" />
  <polygon fill="#fff" points="149.05 47.04 145.86 47.04 145.86 45.01 159.41 45.01 159.41 47.04 154.43 47.04 163.86 61.44 172.59 47.04 167.59 47.04 167.59 45.01 178.57 45.01 178.57 47.04 175.71 47.04 165.19 64.24 165.19 79.22 169.35 79.22 169.35 81.25 156.29 81.25 156.29 79.22 160.4 79.22 160.4 64.57 149.05 47.04"
  />
  <path fill="#fff" d="M223.17,126.48v-2h4.12V92.27h-4.12v-2h16.19a18.12,18.12,0,0,1-.06,36.24H223.17Zm8.95-2.74h6.59c7.52,0,13.22-6.64,13.17-15.36,0-8.48-5.82-15.34-13.06-15.34h-6.7v30.7Z"
    transform="translate(-41.86 -45.23)" />
  <polygon fill="#fff" points="228.49 81.25 217.4 81.25 217.4 79.22 221.59 79.22 221.59 49.13 220.09 47.04 216.31 47.04 216.31 45.01 224.26 45.01 244.35 72.58 244.35 47.04 240.19 47.04 240.19 45.01 251.22 45.01 251.22 47.04 247.09 47.04 247.09 81.86 245.4 81.86 224.32 52.85 224.32 79.22 228.49 79.22 228.49 81.25"
  />
  <polygon fill="#fff" points="254.94 47.04 254.94 45.01 276.83 45.01 276.83 43.47 279.35 43.47 279.35 52.2 276.89 52.2 276.89 47.53 263.88 47.53 263.88 61.61 274.25 61.61 274.25 57.48 276.77 57.43 276.77 68.25 274.25 68.3 274.25 64.07 263.88 64.07 263.88 78.78 277.38 78.78 277.38 73.95 279.91 73.95 279.91 81.25 254.94 81.25 254.94 79.22 259.05 79.22 259.05 47.04 254.94 47.04"
  />
  <polygon fill="#fff" points="286.75 47.04 283.57 47.04 283.57 45.01 297.12 45.01 297.12 47.04 292.14 47.04 301.57 61.44 310.29 47.04 305.31 47.04 305.31 45.01 316.28 45.01 316.28 47.04 313.43 47.04 302.89 64.24 302.89 79.22 307.06 79.22 307.06 81.25 294 81.25 294 79.22 298.12 79.22 298.12 64.57 286.75 47.04"
  />
  <path d="M144.41,60.85V86.3c0,30.85-21,62.54-51.29,68.46-29.2-5.54-51.26-37.62-51.26-68.46V52.08s25.58-6.85,51.27-6.85c29.85,0,51.28,6.85,51.28,6.85v8.77Z"
    transform="translate(-41.86 -45.23)" style="fill:#fbb500" />
  <path d="M93.13,146.74c24.58,0,43.65-22.83,43.65-47.94V55.56l-0.64-.2s-22.15-6.87-43-6.88-43,6.87-43,6.88l-0.64.2V98.8c0,25.11,19.07,47.92,43.65,47.94"
    transform="translate(-41.86 -45.23)" style="fill:#fff" />
  <path d="M103.06,143.57v-17h19.4a3.42,3.42,0,0,1,2.77,1.43,49,49,0,0,0,9.07-21.31H103.06V90.34c-3.28-.17-6.63-0.27-9.93-0.27s-6.64.1-9.92,0.26v16.36H51.94A49,49,0,0,0,61,128a3.42,3.42,0,0,1,2.78-1.44h19.4v17a37.24,37.24,0,0,0,9.91,1.35v0.14h0v-0.14a37,37,0,0,0,9.93-1.36"
    transform="translate(-41.86 -45.23)" style="fill:#004485" />
  <polygon points="73.78 72.98 69.4 71.48 73.81 69.9 71.77 65.73 76.01 67.74 77.51 63.35 79.09 67.76 83.26 65.73 81.25 69.97 85.63 71.48 81.22 73.05 83.26 77.22 79.02 75.21 77.51 79.6 75.94 75.19 71.77 77.22 73.78 72.98"
    style="fill:#fbb500" />
  <polygon points="28.75 72.98 33.13 71.48 28.73 69.9 30.76 65.73 26.52 67.74 25.01 63.35 23.44 67.76 19.27 65.73 21.28 69.97 16.9 71.48 21.32 73.05 19.27 77.22 23.51 75.21 25.01 79.6 26.59 75.19 30.76 77.22 28.75 72.98"
    style="fill:#fbb500" />
  <polygon points="47.54 89.64 43.16 88.13 47.56 86.55 45.53 82.39 49.76 84.39 51.27 80.01 52.85 84.42 57.01 82.39 55.01 86.62 59.39 88.13 54.98 89.71 57.01 93.88 52.78 91.87 51.27 96.27 49.7 91.84 45.53 93.88 47.54 89.64"
    style="fill:#fbb500" />
  <polygon points="47.54 57.46 43.16 55.95 47.56 54.38 45.54 50.21 49.76 52.22 51.27 47.83 52.84 52.24 57.01 50.21 55 54.44 59.39 55.95 54.98 57.53 57.01 61.7 52.78 59.69 51.27 64.08 49.7 59.67 45.54 61.7 47.54 57.46"
    style="fill:#fbb500" />
  <rect x="65.07" y="64.74" width="1.84" height="1.36" style="fill:#fbb500" />
  <rect x="65.07" y="68.35" width="1.84" height="1.35" style="fill:#fbb500" />
  <rect x="65.07" y="71.95" width="1.84" height="1.36" style="fill:#fbb500" />
  <rect x="65.07" y="75.56" width="1.84" height="1.35" style="fill:#fbb500" />
  <path d="M97.77,109.14a3.7,3.7,0,0,0-.51,0,3.25,3.25,0,0,0-3.3,3.28v10.9a3.33,3.33,0,0,1,2.55-1.18H106v-13H97.77Zm6.35,10.63H96v-1.22h8.09v1.22Zm0-3.35H96v-1.23h8.09v1.23Zm0-3.35H96v-1.23h8.09v1.23Z"
    transform="translate(-41.86 -45.23)" style="fill:#fff" />
  <rect x="35.62" y="64.74" width="1.84" height="1.36" style="fill:#fbb500" />
  <rect x="35.62" y="68.35" width="1.84" height="1.35" style="fill:#fbb500" />
  <rect x="35.62" y="71.95" width="1.84" height="1.36" style="fill:#fbb500" />
  <rect x="35.62" y="75.56" width="1.84" height="1.35" style="fill:#fbb500" />
  <path d="M80.3,109.14v13h9.45a3.32,3.32,0,0,1,2.54,1.18v-10.9A3.25,3.25,0,0,0,89,109.14a3.64,3.64,0,0,0-.5,0H80.3Zm1.83,9.4h8.09v1.22H82.13v-1.22Zm0-3.35h8.09v1.23H82.13v-1.23Zm0-3.35h8.09v1.23H82.13v-1.23Z"
    transform="translate(-41.86 -45.23)" style="fill:#fff" />
  <path d="M93.12,88.26c18.12,0,37.22,2.91,41.85,3.65v-35c-0.62-.18-1.68-0.49-3.11-0.87-2.38-.64-5.77-1.48-9.8-2.34a145.64,145.64,0,0,0-28.95-3.4c-15.36,0-31.62,3.82-38.75,5.74-1.42.38-2.48,0.69-3.1,0.87v35c4.62-.74,23.74-3.65,41.85-3.65"
    transform="translate(-41.86 -45.23)" style="fill:#d4002a" />
  <path d="M111.63,77.77a4.6,4.6,0,0,1-3.3,1,1.4,1.4,0,0,0-1.22.38,1.64,1.64,0,0,0-.18.35,1.29,1.29,0,0,0,.22,1c0.18,0.26.11,0.42-.16,0.48a1.87,1.87,0,0,1-1.35-.27,0.27,0.27,0,0,0-.44.19,1,1,0,0,0,.57,1.09c0.24,0.21.2,0.41-.18,0.54-0.63.22-1.19-.07-2.11-0.58a0.93,0.93,0,0,0-1.32.08,0.42,0.42,0,0,0-.07.58c0.36,0.35.58,1.07-.32,2.19-0.3.37-.61-0.66-0.88-0.54a2.11,2.11,0,0,1-2.6-.69,0.33,0.33,0,0,0-.46,0c-0.61.41-1.92,1.08-2.42-.1-0.08-.17-0.8.27-0.79-0.07a2.4,2.4,0,0,1,2.44-2.38c0.22,0,.26-0.13.15-0.31a1.73,1.73,0,0,1-.45-1.51c0.13-.43-1-0.53-0.52-0.76,2.23-1.11,3.48,1,3.86,1.25,0.65,0.37,3.56-.58,3.91-2.16,0.08-.31-0.68-0.45-1.43-0.64-0.14,0-.21-0.21,0-0.4,1.77-1.32,3.18-3,6.38-3.34a0.49,0.49,0,0,1,.55.44,4.76,4.76,0,0,0,.4,1.43,5.49,5.49,0,0,0,1.58,2,0.42,0.42,0,0,1,.09.65m12.8-4.5c2.34,0,0,1.94-.08,2.5a1.07,1.07,0,0,0,.66,1c0.28,0.14.29,0.32,0.08,0.51a1.89,1.89,0,0,1-1.33.38,0.27,0.27,0,0,0-.31.37,1,1,0,0,0,1,.7c0.3,0.08.36,0.28,0.09,0.57-0.47.48-1.09,0.48-2.14,0.45s-1.79,1.17-1.2,1.67c0.39,0.34,1.2,1.09.5,3.12-0.22.62-.6-0.56-0.91-0.38a1.49,1.49,0,0,1-1.91-.57c-0.16-.19-0.31-0.2-0.41,0-0.33.58-1.2,1.59-2.95,0.64-0.38-.2-1.16.49-1.21,0.26a2.4,2.4,0,0,1,1-2.59c0.06,0,.29-0.36-0.1-0.35a1.26,1.26,0,0,1-1.39-.94c0-.15-0.76-0.12-0.72-0.32,0.17-1,2.38-1.73,3.89-.72,1.28,0.85,2.9-2,1.74-3.4-0.84-1-5.74,1.76-7.4-1.79-0.67-1.43.17-2.65-.51-2.75a8.58,8.58,0,0,0-7.18,2,11.85,11.85,0,0,1-13.52,1.08,0.27,0.27,0,0,0-.36.35,1.66,1.66,0,0,1-.15,1.58,7.92,7.92,0,0,1-3,2A2.5,2.5,0,0,0,84.65,82c0.08,0.25,0,.4-0.28.36a3.68,3.68,0,0,1-2.84-2.06c-0.06-.17-0.23-0.17-0.44,0a1.48,1.48,0,0,0-.37,2,0.22,0.22,0,0,1-.18.34c-0.83.1-1.42-.87-2.14-0.8a3.26,3.26,0,0,0-1.31.61A0.51,0.51,0,0,0,77,83c0.91,2.7-.58,2.79-0.67,2.74a0.79,0.79,0,0,0-.48-0.58,1.68,1.68,0,0,1-2-1.58c0-.23-0.12-0.31-0.28-0.2-0.55.39-1.92,1.15-2.78,0a0.83,0.83,0,0,0-.75.1c-0.18.08-.18-0.22-0.18-0.31a2.88,2.88,0,0,1,1.72-2.5c0.21-.1.23-0.21,0.06-0.34-0.46-.34-1.28-1.09-1-1.89,0-.15-0.68-0.44-0.5-0.57,1.68-1.22,3.84.8,4.12,1S76.12,79.2,80,77a15.19,15.19,0,0,0,4.48-3.42A0.74,0.74,0,0,1,85,73.28a6.62,6.62,0,0,0,4.34-1.36,0.35,0.35,0,0,1,.49,0c2.23,1.55,3.38-1.88,3.84-3.46a0.55,0.55,0,0,1,.47-0.6c8.21,0.39,23.78.34,23.78,0.34s2.05,0.16,1.94-1.11c-0.16-2-8.65-2-15-1.13-2.3.32-5.64,0.5-7.62-.27a3.54,3.54,0,0,1-1.85-1.48,2.75,2.75,0,0,1-.22-1.86,4.54,4.54,0,0,1,.55-1.22c1.62-2.51,5.38-2.7,6.55-2.7a0.35,0.35,0,0,0,.39-0.26,2.3,2.3,0,0,1,2.13-2,3.58,3.58,0,0,0,1.18-.32c0.19-.08.31,0,0.27,0.13a1.23,1.23,0,0,1-.37.68c-1.11.95-.94,1.38-0.81,1.51a0.2,0.2,0,0,0,.26,0c3.35-2.92,5.3-1,5.89-.35,0.1,0.11.12,0.29-.07,0.34-2.27.51-3.15,2.54-7.79,2.21-0.56,0-4.37-.23-5.58,1.5-0.7,1-.21,1.94,1.84,2.39,1.56,0.34,5.19-.19,6.91-0.33s9-1.05,12.83.05c1.62,0.46,4,1.77,3.5,4.22a3.19,3.19,0,0,1-1.8,2.16s-4.21,3,3.34,3m-54.91-3.8c-0.65-.58.77-3.84-2.37-4.63-0.49,0,.21.58,0,0.73a1.48,1.48,0,0,0-.73,1.51,0.25,0.25,0,0,1-.37.16,3,3,0,0,0-3.84.08c-0.29.26,0.58,0.32,0.55,0.47a1.73,1.73,0,0,0,1,1.9,0.28,0.28,0,0,1,.07.41,1.94,1.94,0,0,0-.67.88c-0.06.3-1.12,0.18-.8,0.53a2.72,2.72,0,0,0,3.92.21c0.46-.46,2.38.07,2.09,1.05-0.37,1.25-.28,1.86,0,1.64a2.29,2.29,0,0,1,1.45-.54c0.13,0,.5.08,0.35,0.39A2.58,2.58,0,0,0,70,76.18a0.25,0.25,0,0,0,.46.13,2.6,2.6,0,0,1,3.27-.53c1.18,0.76,4.51,1.82,8.88-2.36,0.13-.12.14-0.6-0.25-0.46-1.19.47-2.54,0.58-4.74-.54A9.85,9.85,0,0,0,76.36,72c-2.73-.58-5.63-1.43-6.83-2.5M106,61a5.67,5.67,0,0,0,3.16-1.17,2.4,2.4,0,0,1,2.12.25,0.18,0.18,0,0,1-.1.31,2.44,2.44,0,0,0-.91.38c-0.68.46-3.42,1.59-4.27,0.23M85.41,70.91c-0.24.63-1.12,0.42-1.6,0.81a0.26,0.26,0,0,1-.24,0c-0.47-.4-1.35-0.2-1.63-0.89a0.13,0.13,0,0,1,.1-0.18,2.51,2.51,0,0,0,1.58-.82,0.15,0.15,0,0,1,.23,0,2.49,2.49,0,0,0,1.44.79c0.07,0,.17.07,0.11,0.25m-5.6-11.33a1,1,0,0,0-.69-0.28,1,1,0,0,0-1,1,1,1,0,0,0,.37.78,0.17,0.17,0,0,0,.21,0,5.16,5.16,0,0,1,1.1-1.27,0.16,0.16,0,0,0,0-.22m0.72,8.64a12.33,12.33,0,0,0-1.14-2.89c-0.66-1.15.32-4.52,1.9-4.91a0.52,0.52,0,0,0,.25-0.84,3.75,3.75,0,0,0-2.42-1.48,2.23,2.23,0,0,0-2.22,2.24c0,1.41,1.08,1.64,1,2a4.72,4.72,0,0,0,.15,3.75,13.67,13.67,0,0,1,1,2.61,2.81,2.81,0,0,0,1.34,1.93,1.08,1.08,0,0,1,.32.76,1,1,0,0,0,.27.31c0.15,0.11,0,.14-0.09.12a4.07,4.07,0,0,1-3.3-2c-0.35-.75-1.48,1.89-2.14.63a13.82,13.82,0,0,1-1.36-3.69c-0.17-.74-0.64.53-0.82,0.08a7.34,7.34,0,0,1-.56-2.68,7.14,7.14,0,0,1,5.68-6.83c0.63-.14-0.73-1.19.16-1.15a10.49,10.49,0,0,1,3.94.74c0.28,0.12.44-.41,1-0.76a0.25,0.25,0,0,1,.27,0c0.57,0.35.77,0.86,1,.74a10.7,10.7,0,0,1,3.91-.73c0.92-.06-0.47,1,0.16,1.15a7.14,7.14,0,0,1,5.68,6.83A7.3,7.3,0,0,1,94,66.89c-0.18.44-.64-0.83-0.82-0.08A14.09,14.09,0,0,1,91.8,70.5c-0.68,1.26-1.8-1.38-2.15-.63a4,4,0,0,1-3.14,1.94c-0.12,0-.23,0-0.08-0.14a1.27,1.27,0,0,0,.37-0.76,0.15,0.15,0,0,1,.09-0.17,2.8,2.8,0,0,0,1.54-2,15.54,15.54,0,0,1,1-2.68c0.88-1.57-.19-3.48.08-3.91a2.23,2.23,0,1,0-2.89-3.34l-0.06.06a8.25,8.25,0,0,0-.58.68,0.52,0.52,0,0,0,.19.82c1.52,0.4,2.51,3.82,1.89,4.94a11.7,11.7,0,0,0-1.12,2.88,1.24,1.24,0,0,1-2.41.44l0-.05c0.42-.26,1.35-0.82,1.35-1.4l-0.18-1.88a1.24,1.24,0,0,0,1.2-1.22l0.2-.15c0.25-.23.42-0.86-0.12-0.77-0.77.14-1.64,0.12-2.49,0.35a0.32,0.32,0,0,0-.22.24c0,0.16.46,2.43,0.57,2.93a0.08,0.08,0,0,1-.06.09c-0.34,0-1-.06-1.11-0.06l-1.1.07a0.08,0.08,0,0,1-.07-0.09c0.11-.54.61-2.79,0.61-2.79a0.41,0.41,0,0,0-.05-0.27,14.06,14.06,0,0,0-2.67-.46,0.33,0.33,0,0,0-.33.13c-0.22.31,0.16,0.66,0.41,0.8a1.24,1.24,0,0,0,1.19,1.19l0,0c0,0.12-.21,1.86-0.21,1.87,0,0.6.91,1.11,1.37,1.38a0.31,0.31,0,0,1,.06.11,1.31,1.31,0,0,1-1.15.75,1.24,1.24,0,0,1-1.24-1.25m7.13-8.53a4.81,4.81,0,0,1,1,1.32,0.14,0.14,0,0,0,.19.06,1,1,0,0,0-.63-1.76,1,1,0,0,0-.58.19,0.17,0.17,0,0,0,0,.19"
    transform="translate(-41.86 -45.23)" style="fill:#ffdd92" />
  <path d="M136.15,55.37S114,48.5,93.13,48.5s-43,6.86-43,6.88l-0.64.19V98.8c0,25.11,19.07,47.92,43.65,47.94v-1.81c-11.7,0-22.15-5.46-29.69-14A48.84,48.84,0,0,1,51.27,98.8v-5c1.75-.29,6.48-1,12.82-1.77a256.28,256.28,0,0,1,29-1.91,256.82,256.82,0,0,1,29,1.91c6.35,0.74,11.07,1.49,12.82,1.77v5A48.88,48.88,0,0,1,122.83,131c-7.55,8.51-18,14-29.69,14v1.81c24.58,0,43.65-22.83,43.65-47.94V55.56l-0.64-.19h0Zm-43,32.9c-18.11,0-37.23,2.9-41.85,3.65v-35c0.62-.18,1.67-0.48,3.1-0.86,7.14-1.92,23.39-5.74,38.75-5.74a145.76,145.76,0,0,1,28.95,3.4c4,0.85,7.42,1.7,9.8,2.34,1.42,0.38,2.48.68,3.11,0.86v35c-4.63-.75-23.74-3.65-41.85-3.65"
    transform="translate(-41.86 -45.23)" style="fill:#fff" />
</svg>