<?xml version="1.0" encoding="utf-8"?>
<!-- Generator: Adobe Illustrator 16.0.4, SVG Export Plug-In . SVG Version: 6.00 Build 0)  -->
<!DOCTYPE svg PUBLIC "-//W3C//DTD SVG 1.1//EN" "http://www.w3.org/Graphics/SVG/1.1/DTD/svg11.dtd">
<svg version="1.1" id="Layer_1" xmlns="http://www.w3.org/2000/svg" xmlns:xlink="http://www.w3.org/1999/xlink" x="0px" y="0px"
	 width="144px" height="144px" viewBox="0 0 144 144" enable-background="new 0 0 144 144" xml:space="preserve">
<g id="Layer_2">
</g>
<g>
	<path stroke="#000000" stroke-miterlimit="10" d="M107.627,39.644c-0.375-0.126-0.798-0.52-1.134-1.077
		c-4.129-6.837-10.694-10.354-17.068-13.359c-6.068-2.868-10.953-5.301-15.355-7.654C73.392,17.187,72.56,17,71.621,17
		c-2.338,0-4.931,1.084-6.405,2.929c-0.298,0.371-0.787,0.958-0.699,1.474c0.026,0.134,0.611,0.02,0.703-0.007
		c0.271-0.084,0.561-0.176,0.764-0.382c1.676-1.696,3.392-2.513,5.25-2.513c1.623,0,3.438,0.611,5.705,1.94
		c4.041,2.349,8.35,4.381,12.517,6.348c2.035,0.951,4.14,1.948,6.185,2.963c3.303,1.639,5.697,4.332,8.424,7.447
		c-1.025-0.08-1.979-0.122-2.892-0.122c-4.769,0-8.425,1.195-11.477,3.777c-4.193-4.182-9.271-6.863-15.089-7.955l-0.101-0.02
		c-1.45-0.275-2.959-0.554-4.461-0.554c-0.634,0-1.269,0.054-1.89,0.172c-0.542,0.111-1.086,0.275-1.594,0.516
		c-0.479,0.232-0.928,0.526-1.451,0.675c-1.264,0.371-2.54,0.749-3.777,1.222c-2.107,0.813-4.132,1.91-5.835,3.403
		c-2.896,2.551-4.476,6.08-4.965,9.861c-0.517,4.063,0.03,8.208,0.771,12.206c-0.828-0.145-1.531-0.217-2.166-0.217
		c-2.382,0-3.865,1.001-5.27,3.56c-0.13,0.237-0.245,0.481-0.355,0.718c-0.16,0.363-0.328,0.732-0.558,1.051
		c-0.39,0.562-0.699,1.221-1.001,1.859c-0.389,0.83-0.889,1.578-1.207,2.436c-0.087,0.25-0.251,0.459-0.352,0.697
		c-0.16,0.392-0.256,0.899-0.562,1.213c-0.455,0.463-0.866,0.051-1.229-0.283c-0.207-0.189-0.451-0.312-0.662-0.496
		c-0.641-0.549-1.268-0.07-1.744,0.405c-0.184,0.188-0.375,0.378-0.555,0.513c-0.061,0.042-0.127,0.087-0.188,0.137
		c-0.286,0.207-0.607,0.45-0.9,0.45c-0.173-0.015-0.341-0.022-0.509-0.022c-1.856,0-2.989,0.871-3.457,2.664
		c-2.065-0.906-4.132-1.868-5.977-3.183c-0.913-0.649-1.761-1.383-2.521-2.204c-0.677-0.734-0.951-1.658,0.336-1.787
		c1.895-0.184,3.873,0.58,5.606,1.221c0.718,0.265,1.438,0.531,2.173,0.742c0.413,0.119,0.812,0.291,1.245,0.316
		c0.198,0.023,0.417,0.023,0.534-0.16c0.156-0.223-0.057-0.488-0.152-0.698c-0.367-0.75-0.73-1.493-1.081-2.242
		c-0.302-0.63-0.501-1.208,0.282-1.565c0.676-0.302,1.396-0.164,2.043,0.125c0.357,0.156,0.732,0.333,1.072,0.523
		c0.195,0.111,0.39,0.226,0.578,0.328c0.961,0.512,1.832,1.199,2.756,1.933c0.371,0.279,0.684,0.635,1.097,0.853
		c0.207,0.113,0.382,0.194,0.485-0.035c0.171-0.366,0.277-0.828,0.418-1.223c0.421-1.068,0.845-2.176,1.123-3.336
		c0.699-2.895,1.371-5.848,2.021-8.708c1.055-4.617,2.139-9.399,3.361-14.059c1.715-6.522,4.979-11.056,9.986-13.875
		c1.994-1.115,3.533-2.1,4.842-3.112c0.746-0.562,1.371-1.295,1.99-1.998c0.354-0.417,0.722-0.81,1.119-1.188
		c0.451-0.431-0.259-0.065-0.447,0.057c-0.782,0.52-1.596,1.032-2.387,1.524c-1.774,1.123-3.617,2.28-5.255,3.632
		c-0.579,0.478-1.21,0.975-1.81,1.44c-2.452,1.921-4.987,3.903-6.303,6.469c-3.108,6.084-5.285,13.035-6.474,20.635
		c-0.106,0.684-0.155,1.391-0.202,2.139c-0.053,0.935-0.105,1.887-0.302,2.814c-0.207,0.971-0.584,1.932-1.28,2.666
		c-0.256,0.271-0.522,0.608-0.877,0.74c-0.738,0.276-1.883-0.378-2.357,0.488c-0.141,0.265-0.336,0.933-0.741,0.86
		c-0.289-0.061-0.545-0.248-0.821-0.344c-1.16-0.393-2.253-0.763-3.337-0.721c-0.845,0.019-1.459,0.297-1.825,0.801
		c-0.488,0.673-0.539,1.766-0.138,3.248c-0.604-0.177-1.177-0.349-1.728-0.533c-1.371-0.43-2.657-0.838-3.948-0.961
		c-0.867-0.077-2.085,0.378-2.739,0.95c-1.039,0.913-0.08,2.819,0.821,3.48c1.573,1.152,3.274,2.191,4.915,3.185
		c0.939,0.562,1.91,1.153,2.843,1.761c0.521,0.332,0.978,0.758,1.508,1.262c0.187,0.168,0.39,0.312,0.542,0.52
		c0.287,0.37-0.328,0.434-0.584,0.562c-0.455,0.243-0.779,0.409-1.1,0.565c-1.353,0.641-2.116,1.381-2.346,2.269
		c-0.229,0.878,0.073,1.862,0.91,3.032c0.506,0.697,1.135,1.312,1.695,1.859c1.871,1.817,3.99,3.375,6.273,4.645
		c1.312,0.714,2.674,1.348,4.068,1.896c1.359,0.531,2.762,0.926,4.151,1.383c0.774,0.245,1.521,0.577,2.229,0.971
		c0.703,0.4,1.353,0.884,2.043,1.3c0.676,0.411,1.269,0.946,1.955,1.344c1.379,0.81,2.814,1.574,4.205,2.313
		c0.99,0.527,2.01,1.07,3.001,1.624c2.919,1.643,5.546,3.119,8.169,4.744c0.547,0.338,1.059,1.123,1.112,1.717
		c0.211,2.228,0.369,4.484,0.526,6.67c0.168,2.223,0.332,4.513,0.547,6.764c0.076,0.837,0.373,1.657,0.656,2.448
		c0.131,0.351,0.229,1.405,0.782,1.026c0.312-0.229,0.66-0.545,0.618-0.967c-0.16-1.523-0.332-3.043-0.503-4.574
		c-0.317-2.795-0.649-5.688-0.88-8.545c-0.389-4.817-0.389-4.817,4.263-6.473l0.056-0.023c0.768-0.271,1.533-0.404,2.278-0.404
		c2.884,0,5.003,2.035,5.278,5.064c0.197,2.146,0.373,4.318,0.542,6.424c0.153,1.897,0.312,3.854,0.478,5.771
		c0.049,0.521,0.18,1.047,0.307,1.552c0.049,0.19,0.033,0.459,0.146,0.641c0.204,0.338,0.427-0.086,0.563-0.293
		c0.312-0.463,0.428-0.978,0.395-1.527c-0.081-1.562-0.184-3.131-0.279-4.689c-0.188-3.037-0.386-6.168-0.512-9.262
		c-0.035-0.939,0.215-2.146,0.752-2.544c1.661-1.226,3.45-2.351,5.184-3.425c0.822-0.52,1.681-1.056,2.518-1.603
		c0.684-0.445,1.37-0.875,2.055-1.306c1.892-1.188,3.854-2.413,5.596-3.838c1.295-1.056,2.406-2.384,3.479-3.666
		c0.48-0.574,0.975-1.162,1.489-1.729l0.828-0.926l-0.996,0.741c-1.233,0.909-2.452,1.821-3.666,2.719
		c-2.953,2.2-5.741,4.277-8.631,6.332c-2.64,1.868-4.847,3.239-6.948,4.324c-1.329,0.676-2.955,0.962-3.982,0.664
		c-1.75-0.505-3.193-0.732-4.545-0.732c-1.742,0-3.287,0.401-4.734,1.223c-0.982,0.553-1.934,0.828-2.918,0.828
		c-1.598,0-3.125-0.756-4.408-1.492c-2.795-1.619-5.698-3.155-8.51-4.646c-1.316-0.699-2.639-1.406-3.952-2.107
		c-0.579-0.316-1.16-0.657-1.837-1.047c-0.232-0.129-1-0.432-0.336-0.562c0.627-0.121,1.254-0.276,1.865-0.465
		c0.834-0.265,1.652-0.58,2.446-0.948c2.49-1.146,4.798-2.757,6.672-4.763c1.593-1.695,2.983-3.78,3.364-6.118
		c0.042-0.271-0.057-0.314-0.229-0.095c-0.316,0.436-0.615,0.852-0.901,1.253c-0.588,0.82-1.149,1.6-1.738,2.337
		c-2.784,3.498-6.31,7.073-11.304,7.073c-0.745,0-1.518-0.08-2.295-0.24c-3.877-0.791-7.611-2.532-11.075-4.301
		c-1.872-0.948-3.479-2.521-5.042-4.025c-0.29-0.275-0.572-0.554-0.859-0.824c-0.416-0.4-0.679-0.929-0.896-1.443
		c-0.48-1.165,0.756-1.77,1.642-2.154c0.329-0.148,0.669-0.282,1.009-0.404c0.213-0.076,0.478-0.115,0.783-0.115
		c0.249,0,0.489,0.021,0.698,0.043c0.844,0.084,0.547-0.504,0.24-0.981c-0.679-1.065-1.349-2.476-0.751-3.716
		c0.479-0.997,1.723-1.342,2.746-1.031c0.324,0.107,0.668,0.157,1.008,0.195c0.249,0.031,0.658,0.137,0.875-0.021
		c0.229-0.163-0.081-0.688-0.15-0.911c-0.045-0.146-0.15-0.304-0.171-0.451c-0.123-0.933,0.962-0.043,1.226,0.129
		c0.293,0.18,0.592,0.344,0.879,0.531c0.146,0.088,0.483,0.42,0.668,0.396c0.129-0.025,0.197-0.236,0.256-0.337
		c0.389-0.751,0.783-1.513,1.176-2.265c1.046-2.001,2.089-4.011,3.124-6.021c0.978-1.903,1.989-3.858,4.334-3.858
		c0.065,0,0.131,0.003,0.192,0.003c2.097,0.088,3.541,1.33,4.686,4.021C57.161,73.893,66.37,79.85,75.942,79.85
		c1.742,0,3.457-0.203,5.109-0.604c1.368-0.329,2.676-1.027,3.924-1.711c0.349-0.191,0.69-0.379,1.047-0.562
		c0.172-0.092,0.354-0.176,0.531-0.271c0.098-0.042,0.198-0.083,0.221-0.202c0.026-0.117-0.078-0.24-0.131-0.34
		c-0.063-0.122-0.125-0.366-0.25-0.446c-0.104-0.053-0.237,0.008-0.334,0.038c-0.172,0.058-0.348,0.118-0.522,0.172
		c-0.53,0.164-1.081,0.336-1.584,0.58c-2.49,1.253-5.24,1.892-8.175,1.892c-6.477,0-13.232-3.158-17.201-8.039
		c-5.916-7.269-8.061-15.234-6.389-23.671c1.256-6.336,6.148-10.766,11.886-10.766c2.897,0,5.7,1.146,8.123,3.318
		c2.45,2.2,5.145,4.216,7.749,6.165c1.978,1.489,4.029,3.021,5.957,4.632c1.849,1.543,3.75,3.334,3.869,4.984
		c0.34,4.827,0.285,9.769,0.229,14.549c-0.024,1.716-0.039,3.492-0.039,5.238c-0.077-0.051-0.153-0.108-0.198-0.178
		c-0.229-0.404-0.442-0.848-0.631-1.332c-2.509-6.513-6.16-12.688-10.865-18.363c-1.978-2.387-4.541-3.926-7.635-4.571
		c-0.6-0.134-1.188-0.195-1.761-0.195c-1.817,0-3.403,0.649-4.38,1.78c-0.817,0.966-1.146,2.192-0.936,3.544
		c0.729,4.675,4.197,9.647,9.185,9.644c1.466,0,3.001-0.424,4.552-1.265c0.391-0.213,0.814-0.388,1.223-0.564
		c0.58-0.233,1.178-0.482,1.699-0.837c0.489-0.332,0.897-0.497,1.227-0.497c0.513,0,0.916,0.375,1.307,1.211l0.232,0.522
		c1.304,2.796,2.645,5.687,4.096,8.46c0.66,1.275,1.469,2.494,2.253,3.67c0.294,0.443,0.546,0.921,0.862,1.341
		c0.287,0.366,0.615,1.317,1.135,0.765c0.42-0.446,0.408-1.412,0.597-1.979c0.29-0.874,0.595-1.791,0.722-2.708
		c0.302-2.211,0.571-4.465,0.828-6.642c0.359-3.001,0.737-6.106,1.198-9.131c0.279-1.856,0.951-3.456,1.843-4.389
		c0.684-0.714,2.051-1.253,3.186-1.253c0.24,0,0.467,0.02,0.664,0.077c0.874,0.233,1.879,1.806,2.181,3.066
		c0.875,3.609-1.313,7.18-5.099,8.314c-0.604,0.175-1.202,0.355-1.813,0.531c-0.479,0.142-1.313,0.397-0.413,0.634
		c0.535,0.145,1.123,0.119,1.67,0.119c2.178,0,3.944-0.963,5.239-2.85c2.128-3.101,2.388-6.396,0.769-9.784
		c-0.646-1.36-1.733-2.101-3.078-2.101c-0.395,0-0.787,0.061-1.184,0.187c-1.865,0.6-4.382,1.733-4.783,4.744L93.487,57.6
		c-0.321,2.475-0.653,5.026-1.006,7.535c-0.189,1.439-0.42,2.91-0.641,4.331c-0.055,0.339-0.104,0.688-0.16,1.028
		c-0.498-5.115-0.486-10.248-0.475-14.797v-0.16c0-0.344-0.012-0.742,0.145-0.997c2.869-4.805,6.111-9.758,11.428-12.775
		c0.826-0.469,1.808-0.714,2.839-0.714c3.463,0,5.537,2.429,5.713,4.725l0.058,0.688c0.194,2.394,0.4,4.866-0.033,7.172
		c-1.289,6.848-2.754,14.173-4.756,21.33c-0.656,2.364-3.322,4.748-7.149,4.748c-1.097,0-2.161-0.223-3.095-0.639
		c-0.689-0.306-1.362-0.66-2.148-1.072c-0.332-0.168-1.096-0.757-1.447-0.642c0,0.621,0.829,1.172,1.245,1.546
		c0.522,0.467,1.097,0.875,1.72,1.194c1.197,0.631,2.559,0.963,3.914,0.963c3.59-0.002,6.773-2.172,8.119-5.537
		c3.115-7.837,4.827-16.861,5.232-27.608C113.16,43.745,111.247,40.804,107.627,39.644z M37.206,65.51
		c0.003-0.023,0.011-0.054,0.018-0.065c0.219-0.408,0.631-0.499,1.062-0.496c0.213,0,0.424,0.035,0.643,0.023
		c0.174-0.011,0.411-0.119,0.578-0.092c0.2,0.023,0.203,0.29,0.184,0.439c0,0-0.752,1.985-0.938,2.211c-0.187,0.226-0.478,0-0.478,0
		c-0.303-0.447-0.611-0.885-0.906-1.332C37.29,66.068,37.175,65.705,37.206,65.51z M89.669,50.554
		c-0.008,0.619-0.008,1.246-0.016,1.875c-0.534-0.493-1.076-1.004-1.6-1.504c-1.308-1.241-2.654-2.517-4.062-3.689
		c-0.601-0.497-1.191-0.997-1.795-1.497c-3.112-2.608-6.327-5.297-9.7-7.649c-1.736-1.2-3.742-2.066-5.675-2.903
		c-0.417-0.179-0.841-0.362-1.253-0.539c-0.146-0.069-0.437-0.133-0.543-0.24c-0.297-0.298,0.615-0.34,0.791-0.375
		c0.481-0.083,0.97-0.153,1.466-0.213c0.967-0.119,1.952-0.172,2.934-0.172c5.97,0,11.576,2.161,17.121,6.618
		c1.733,1.398,2.532,3.128,2.435,5.305C89.696,47.228,89.685,48.92,89.669,50.554z M78.812,62.073
		c-1.963,0.634-3.65,1.178-5.408,1.452c-0.309,0.05-0.618,0.073-0.924,0.073h-0.008c-1.711,0-3.343-0.771-4.722-2.227
		c-2.085-2.204-3.069-5.404-2.959-7.406c0.106-1.879,1.623-2.276,3.032-2.482c0.439-0.068,0.879-0.11,1.31-0.11
		c2.411,0,4.743,1.054,6.942,3.128c1.273,1.199,2.377,2.6,3.652,4.232c0.606,0.767,1.232,1.57,1.951,2.439
		C80.659,61.473,79.726,61.776,78.812,62.073z M101.901,40.697c-1.717,1.337-3.498,2.715-5.051,4.293
		c-1.562,1.592-2.785,3.559-3.974,5.45c-0.16,0.264-0.323,0.527-0.493,0.791c-0.554,0.882-1.012,1.512-1.82,1.512
		c-0.19,0-0.405-0.035-0.638-0.104c0.087-0.37,0.187-0.748,0.282-1.123c0.24-0.963,0.504-1.963,0.648-2.964
		c0.08-0.584,0.016-1.199-0.053-1.787c-0.031-0.32-0.068-0.646-0.084-0.966c-0.169-4.935,0.418-5.717,5.266-6.928
		c1.837-0.462,3.07-0.649,4.133-0.649c0.707,0,1.42,0.099,2.107,0.279c0.358,0.091,1.076,0.207,1.16,0.657
		C103.49,39.769,102.292,40.4,101.901,40.697z"/>
	<path stroke="#000000" stroke-miterlimit="10" d="M102.636,81.536c0,0,3.877,7.455,6.58,6.794c0,0,3.17-0.71,0.715-16.426
		c0,0,0.492-0.916,0.932,0c0,0,1.127,3.356,1.062,13.863c0,0-0.062,4.561-3.743,4.312c0,0-3.818-1.997-5.877-7.063
		C102.304,83.014,101.401,81.49,102.636,81.536z"/>
</g>
</svg>
